<svg xmlns="http://www.w3.org/2000/svg" width="122" height="122">
    <path fill="#DDD" fill-rule="evenodd" d="M12 8h70c2.209 0 4 1.791 4 4v82c0 2.209-1.791 4-4 4H12c-2.209 0-4-1.791-4-4V12c0-2.209 1.791-4 4-4z"/>
    <path fill="#FFF" fill-rule="evenodd" d="M27 31h32c1.104 0 2 .896 2 2s-.896 2-2 2H27c-1.104 0-2-.896-2-2s.896-2 2-2zM27 43h22c1.104 0 2 .896 2 2 0 1.105-.896 2-2 2H27c-1.104 0-2-.895-2-2 0-1.104.896-2 2-2z"/>
    <path fill="#BBB" fill-rule="evenodd" d="M92.354 94.339c.781-.782 2.047-.782 2.829 0l7.485 8.485c.781.781.781 2.047 0 2.829-.781.78-2.048.78-2.828 0l-7.486-8.486c-.781-.781-.781-2.047 0-2.828z"/>
    <path fill="#FFF" fill-rule="evenodd" stroke="#BBB" stroke-width="4" d="M81 60c11.598 0 21 9.401 21 21 0 11.597-9.402 20.999-21 20.999S60 92.597 60 81c0-11.599 9.402-21 21-21z"/>
</svg>
